<svg xmlns="http://www.w3.org/2000/svg" viewBox="0 0 256 256">
  <title>Poké Ball</title><defs>
    <radialGradient id="red" cx="34%" cy="16%" r="90%"><stop stop-color="#ff988b"/><stop offset=".35" stop-color="#f24a38"/><stop offset=".76" stop-color="#be1f1f"/><stop offset="1" stop-color="#710c16"/></radialGradient>
    <linearGradient id="white" x1="0" y1="0" x2="0" y2="1"><stop stop-color="#fff"/><stop offset=".56" stop-color="#f1f3f5"/><stop offset="1" stop-color="#b7bec9"/></linearGradient>
    <linearGradient id="rim" x1="0" x2="0" y2="1"><stop stop-color="#68717c"/><stop offset=".45" stop-color="#20252c"/><stop offset="1" stop-color="#050608"/></linearGradient>
    <filter id="sh" x="-30%" y="-30%" width="160%" height="160%"><feDropShadow dx="0" dy="5" stdDeviation="4" flood-opacity=".42"/></filter>
  </defs><g filter="url(#sh)">
    <circle cx="128" cy="128" r="112" fill="url(#white)" stroke="#11151c" stroke-width="9"/><path d="M21 128a107 107 0 0 1 214 0H21Z" fill="url(#red)"/>
    <path d="M45 104a91 91 0 0 1 157-47c-45-12-112 7-156 71Z" fill="#ffd5cd" opacity=".25"/><path d="M30 128h196" stroke="url(#rim)" stroke-width="19"/><path d="M45 128h166" stroke="#f9fbff" stroke-width="2" opacity=".6"/>
    <circle cx="128" cy="128" r="31" fill="url(#rim)" stroke="#06080b" stroke-width="4"/><circle cx="128" cy="128" r="22" fill="#f8fbff" stroke="#8490a0" stroke-width="3"/><circle cx="120" cy="119" r="7" fill="#fff"/>
    <path d="M48 157a84 84 0 0 0 160 0" fill="none" stroke="#fff" stroke-width="4" opacity=".42" stroke-linecap="round"/>
  </g></svg>
